<svg width="496" height="319" viewBox="0 0 496 319" fill="none" xmlns="http://www.w3.org/2000/svg">
<g filter="url(#filter0_d_110_362)">
<path d="M486.03 33.6473V14.3214C486.03 11.8839 484.116 9.96875 481.676 9.96875H14.323C11.8852 9.96875 9.96985 11.8839 9.96985 14.3214V33.6473H486.03Z" fill="#475356"/>
<path d="M486.03 57.0646V303.773C486.03 306.213 484.116 308.127 481.676 308.127H14.323C11.8852 308.127 9.96985 306.213 9.96985 303.773V57.0646C9.96985 54.6272 11.8852 52.712 14.323 52.712H481.676C484.029 52.712 486.03 54.7142 486.03 57.0646Z" fill="white"/>
<path d="M486.03 33.6473H9.96985V68.8168H486.03V33.6473Z" fill="#EAEAEA"/>
<g opacity="0.3">
<path opacity="0.3" d="M38.8747 55.5848C39.2231 55.2364 42.7056 51.5803 42.7056 51.5803C42.8796 51.4061 42.9668 51.1449 42.9668 50.8838C42.9668 50.6226 42.8796 50.3614 42.7056 50.1874C42.7056 50.1874 39.2231 46.5312 38.8747 46.183C38.5265 45.8346 37.9171 45.8346 37.4819 46.183C37.1335 46.5312 37.0465 47.0535 37.4819 47.4887L40.6162 50.7968L37.4819 54.1047C37.0465 54.54 37.1335 55.0624 37.4819 55.4106C37.9171 55.9329 38.5265 55.9329 38.8747 55.5848Z" fill="#000101"/>
</g>
<g opacity="0.3">
<path opacity="0.3" d="M22.6811 46.4439C22.3328 46.7923 18.8503 50.4484 18.8503 50.4484C18.6762 50.6226 18.5891 50.8838 18.5891 51.1449C18.5891 51.4061 18.6762 51.6673 18.8503 51.8413C18.8503 51.8413 22.3328 55.4975 22.6811 55.8457C23.0293 56.1939 23.6388 56.1939 24.0741 55.8457C24.4223 55.4975 24.5094 54.9752 24.0741 54.54L20.9398 51.2319L24.0741 47.9238C24.5094 47.4887 24.4223 46.9663 24.0741 46.6181C23.7258 46.0958 23.0293 46.0958 22.6811 46.4439Z" fill="#000101"/>
</g>
<path d="M83.5381 33.647C89.9809 33.647 89.7196 17.194 95.0303 17.194H156.148C162.591 17.194 162.33 33.647 167.641 33.647H83.5381Z" fill="#BAC6D0"/>
<path d="M156.323 26.5087L155.278 25.377L156.323 24.2454C156.497 24.0713 156.497 23.8101 156.323 23.636C156.149 23.4619 155.887 23.4619 155.713 23.636L154.755 24.7677L153.798 23.636C153.624 23.4619 153.362 23.4619 153.188 23.636C153.014 23.8101 153.014 24.0713 153.188 24.2454L154.233 25.377L153.188 26.5087C153.014 26.6829 153.014 26.944 153.188 27.1182C153.362 27.2922 153.624 27.2922 153.798 27.1182L154.755 25.9865L155.713 27.1182C155.887 27.2922 156.149 27.2922 156.323 27.1182C156.497 26.944 156.497 26.6829 156.323 26.5087Z" fill="#465568"/>
<path d="M10.8405 33.8215C17.2832 33.8215 17.022 17.3683 22.3328 17.3683H83.4509C89.8937 17.3683 89.6325 33.8215 94.9434 33.8215H10.8405Z" fill="#EAEAEA"/>
<path d="M83.2769 27.2925L82.2321 26.1608L83.2769 25.0291C83.4509 24.855 83.4509 24.5938 83.2769 24.4197C83.1027 24.2456 82.8415 24.2456 82.6675 24.4197L81.7096 25.5514L80.752 24.4197C80.5778 24.2456 80.3166 24.2456 80.1426 24.4197C79.9684 24.5938 79.9684 24.855 80.1426 25.0291L81.1875 26.1608L80.1426 27.2925C79.9684 27.4667 79.9684 27.7276 80.1426 27.9018C80.3166 28.076 80.5778 28.076 80.752 27.9018L81.7096 26.7701L82.6675 27.9018C82.8415 28.076 83.1027 28.076 83.2769 27.9018C83.4509 27.8148 83.4509 27.4667 83.2769 27.2925Z" fill="#465568"/>
<g opacity="0.3">
<g opacity="0.3">
<g opacity="0.3">
<path opacity="0.3" d="M60.4664 45.9218C62.9912 45.9218 64.9937 47.924 65.0807 50.4486H66.4737L64.3843 52.799L62.2946 50.4486H63.9489C63.8619 48.6203 62.3818 47.0535 60.4664 47.0535C58.5509 47.0535 56.9839 48.6203 56.9839 50.5355C56.9839 52.4508 58.5509 54.0176 60.4664 54.0176C61.25 54.0176 61.9464 53.7564 62.5558 53.3213L63.3394 54.1918C62.5558 54.8012 61.5982 55.1493 60.4664 55.1493C57.9415 55.1493 55.8521 53.0601 55.8521 50.5355C55.8521 48.011 57.9415 45.9218 60.4664 45.9218Z" fill="#000101"/>
</g>
</g>
</g>
<path d="M445.286 21.6337C445.286 24.3323 443.107 26.5086 440.408 26.5086C437.711 26.5086 435.533 24.3323 435.533 21.6337C435.533 18.935 437.711 16.7587 440.408 16.7587C443.02 16.7587 445.286 18.935 445.286 21.6337Z" fill="#70B44A"/>
<path d="M461.826 21.6337C461.826 24.3323 459.65 26.5086 456.951 26.5086C454.251 26.5086 452.075 24.3323 452.075 21.6337C452.075 18.935 454.251 16.7587 456.951 16.7587C459.563 16.7587 461.826 18.935 461.826 21.6337Z" fill="#DDAA54"/>
<path d="M478.456 21.6337C478.456 24.3323 476.28 26.5086 473.58 26.5086C470.881 26.5086 468.705 24.3323 468.705 21.6337C468.705 18.935 470.881 16.7587 473.58 16.7587C476.192 16.7587 478.456 18.935 478.456 21.6337Z" fill="#D6655D"/>
<path d="M379.639 209.582C379.639 211.845 377.81 213.673 375.547 213.673H113.401C111.137 213.673 109.309 211.845 109.309 209.582V194.522C109.309 192.258 111.137 190.43 113.401 190.43H375.547C377.81 190.43 379.639 192.258 379.639 194.522V209.582Z" fill="#E0E0E0"/>
<g opacity="0.9">
<g opacity="0.9">
<g opacity="0.9">
<g opacity="0.9">
<path opacity="0.9" d="M278.647 142.203C279.343 141.942 279.604 141.768 279.604 141.245C279.604 139.853 278.037 138.285 276.207 138.285C274.816 138.285 272.292 139.33 272.292 143.073C272.292 143.683 272.379 144.292 272.379 144.902L278.647 142.203ZM281.868 152.475C281.519 152.649 281.085 152.911 280.736 153.085C279.604 153.607 278.473 153.781 277.428 153.781C276.294 153.781 274.642 153.694 272.812 152.475C270.375 150.734 269.331 147.775 269.331 145.25C269.331 139.94 273.685 137.328 277.167 137.328C278.386 137.328 279.692 137.676 280.736 138.285C282.476 139.417 282.912 140.897 283.174 141.681L275.076 144.989L272.464 145.163C273.336 149.516 276.294 152.04 279.517 152.04C281.257 152.04 282.563 151.431 283.697 150.821L281.868 152.475Z" fill="#9F9F9F"/>
</g>
<g opacity="0.9">
<path opacity="0.9" d="M268.461 153.172H262.367C263.149 152.127 263.324 152.04 263.324 151.344V145.772C263.324 143.074 263.324 139.243 263.498 135.674C263.498 133.933 263.67 131.757 263.67 130.103H260.973L263.585 128.884H268.461C267.416 129.493 267.067 129.668 266.893 130.886C266.631 133.498 266.544 137.763 266.544 142.638V150.56C266.544 151.866 266.806 152.127 267.937 152.214C268.548 152.301 269.069 152.301 269.679 152.388L268.461 153.172Z" fill="#9F9F9F"/>
</g>
<g opacity="0.9">
<path opacity="0.9" d="M255.749 147.6C256.532 146.817 256.619 145.685 256.619 145.076C256.619 142.638 255.138 138.721 252.267 138.721C251.395 138.721 250.438 139.156 249.829 139.852C249.219 140.549 249.045 141.506 249.045 142.377C249.045 144.64 250.35 148.471 253.311 148.471C254.269 148.558 255.226 148.122 255.749 147.6ZM254.705 154.129C254.443 154.129 254.269 154.129 253.92 154.129C253.573 154.129 251.744 154.216 250.263 154.652C249.481 154.913 247.304 155.783 247.304 158.221C247.304 160.658 249.655 162.399 253.399 162.399C256.706 162.399 258.448 160.832 258.448 158.656C258.536 156.915 257.404 155.957 254.705 154.129ZM257.23 138.895C258.012 139.591 259.667 140.897 259.667 143.509C259.667 146.033 258.187 147.252 256.793 148.384C256.357 148.819 255.836 149.341 255.836 150.038C255.836 150.821 256.357 151.169 256.706 151.518L257.925 152.475C259.405 153.781 260.799 154.913 260.799 157.263C260.799 160.484 257.663 163.792 251.744 163.792C246.781 163.792 244.344 161.442 244.344 158.83C244.344 157.611 244.953 155.87 246.955 154.652C249.045 153.346 252.005 153.172 253.486 153.085C252.962 152.475 252.439 151.779 252.439 150.734C252.439 150.125 252.614 149.777 252.788 149.428C252.439 149.428 252.005 149.515 251.656 149.515C248 149.515 245.911 146.817 245.911 144.118C245.911 142.551 246.607 140.81 248.087 139.504C250.089 137.85 252.354 137.589 254.269 137.589H261.32L259.144 138.808H257.23" fill="#9F9F9F"/>
</g>
<g opacity="0.9">
<path opacity="0.9" d="M240.164 150.821C240.948 149.689 241.209 148.384 241.209 146.991C241.209 143.944 239.729 138.198 235.463 138.198C234.331 138.198 233.199 138.634 232.329 139.33C231.023 140.549 230.762 142.029 230.762 143.509C230.762 146.904 232.416 152.562 236.595 152.562C237.988 152.649 239.381 151.953 240.164 150.821ZM235.898 153.607C230.413 153.607 227.54 149.341 227.54 145.511C227.54 140.984 231.197 137.154 236.421 137.154C241.47 137.154 244.605 141.071 244.605 145.25C244.605 149.341 241.47 153.607 235.898 153.607Z" fill="#9F9F9F"/>
</g>
<g opacity="0.9">
<path opacity="0.9" d="M221.881 150.821C222.665 149.689 222.926 148.384 222.926 146.991C222.926 143.944 221.446 138.198 217.18 138.198C216.048 138.198 214.916 138.634 214.045 139.33C212.74 140.549 212.478 142.029 212.478 143.509C212.478 146.904 214.133 152.562 218.312 152.562C219.705 152.649 221.098 151.953 221.881 150.821ZM217.528 153.607C212.043 153.607 209.17 149.341 209.17 145.511C209.17 140.984 212.827 137.154 218.05 137.154C223.1 137.154 226.234 141.071 226.234 145.25C226.321 149.341 223.187 153.607 217.528 153.607Z" fill="#9F9F9F"/>
</g>
<g opacity="0.9">
<path opacity="0.9" d="M206.994 152.475L202.379 153.52C200.551 153.781 198.81 154.042 197.068 154.042C188.188 154.042 184.792 147.513 184.792 142.377C184.792 136.109 189.581 130.277 197.852 130.277C199.593 130.277 201.247 130.538 202.814 130.973C205.252 131.67 206.384 132.453 207.081 132.975L204.382 135.5L203.25 135.761L204.033 134.455C202.901 133.411 200.899 131.408 197.155 131.408C192.019 131.408 188.188 135.239 188.188 140.897C188.188 146.991 192.541 152.65 199.593 152.65C201.683 152.65 202.727 152.214 203.685 151.866V146.643L198.81 146.904L201.421 145.511H208.299L207.429 146.295C207.167 146.469 207.168 146.556 207.081 146.817C207.081 147.078 206.994 148.036 206.994 148.384V152.475Z" fill="#9F9F9F"/>
</g>
</g>
</g>
</g>
<path d="M466.963 51.3194H456.776C456.342 51.3194 455.906 51.7545 455.906 52.3639C455.906 52.8862 456.255 53.4086 456.776 53.4086H466.963C467.399 53.4086 467.835 52.9732 467.835 52.3639C467.748 51.7545 467.399 51.3194 466.963 51.3194ZM456.689 49.3172H466.876C467.312 49.3172 467.748 48.8818 467.748 48.2724C467.748 47.7501 467.399 47.2277 466.876 47.2277H456.689C456.255 47.2277 455.819 47.6631 455.819 48.2724C455.906 48.8818 456.255 49.3172 456.689 49.3172ZM466.963 55.3238H456.776C456.342 55.3238 455.906 55.759 455.906 56.3683C455.906 56.8907 456.255 57.413 456.776 57.413H466.963C467.399 57.413 467.835 56.9777 467.835 56.3683C467.748 55.759 467.399 55.3238 466.963 55.3238Z" fill="#9F9F9F"/>
<path d="M439.713 59.415C439.713 60.8079 438.581 62.0268 437.101 62.0268L78.7496 61.1563C77.3566 61.1563 76.1378 60.0246 76.1378 58.5445V44.2678C76.1378 42.8749 77.2696 41.6562 78.7496 41.6562L437.101 42.5267C438.494 42.5267 439.713 43.6584 439.713 45.1383V59.415Z" fill="white"/>
<path d="M87.8912 45.8348H82.6675C82.5805 45.8348 82.5805 45.9218 82.5805 46.0087V56.4552C82.5805 56.5422 82.6675 56.6292 82.6675 56.6292H90.5903C90.6773 56.6292 90.6773 56.5422 90.6773 56.4552V48.7945L87.8912 45.8348Z" fill="#DCDBDB"/>
<path d="M87.8912 45.8348L90.7643 48.7945H88.1524C88.1524 48.7945 87.9782 48.7945 87.9782 48.5333C87.8912 48.2721 87.8912 45.8348 87.8912 45.8348Z" fill="#BABABA"/>
<g opacity="0.7">
<path opacity="0.7" d="M102.866 27.2906H102.431L100.776 24.6791V27.2906H100.428V24.1567H100.863L102.518 26.7683V24.1567H102.866V27.2906Z" fill="#475356"/>
<path opacity="0.7" d="M103.737 26.2476C103.737 26.5088 103.737 26.5958 103.824 26.77C103.911 26.9442 104.172 27.0312 104.346 27.0312C104.607 27.0312 104.868 26.857 104.956 26.5958H105.304C105.217 27.1181 104.868 27.3793 104.346 27.3793C103.737 27.3793 103.301 26.9442 103.301 26.1606C103.301 25.3771 103.737 24.942 104.346 24.942C104.781 24.942 105.13 25.2029 105.304 25.5513C105.391 25.7253 105.391 25.8995 105.391 26.2476H103.737ZM105.043 25.9864C105.043 25.5513 104.781 25.2901 104.433 25.2901C104.085 25.2901 103.824 25.5513 103.737 25.9864H105.043Z" fill="#475356"/>
<path opacity="0.7" d="M107.567 27.2924L107.132 25.4641L106.697 27.2924H106.261L105.565 25.029H106L106.436 26.77L106.871 25.029H107.306L107.742 26.77L108.177 25.029H108.612L107.916 27.2924H107.567Z" fill="#475356"/>
<path opacity="0.7" d="M111.485 27.2924H111.05V24.5068H110.005V24.1586H112.53V24.5068H111.485V27.2924Z" fill="#475356"/>
<path opacity="0.7" d="M114.532 27.3794C114.445 27.3794 114.358 27.3794 114.271 27.3794C114.01 27.3794 113.923 27.2924 113.923 27.0312C113.662 27.2924 113.401 27.3794 113.139 27.3794C112.704 27.3794 112.356 27.1182 112.356 26.6828C112.356 26.4219 112.53 26.1607 112.791 26.0735C112.965 25.9865 113.052 25.9865 113.488 25.8995C113.749 25.8995 113.836 25.8123 113.836 25.6383C113.836 25.3772 113.662 25.2902 113.314 25.2902C112.965 25.2902 112.791 25.3772 112.791 25.7253H112.443C112.443 25.4641 112.53 25.3772 112.617 25.2902C112.791 25.116 113.052 25.029 113.401 25.029C113.923 25.029 114.271 25.2902 114.271 25.6383V26.944C114.271 27.0312 114.358 27.1182 114.445 27.1182C114.445 27.1182 114.445 27.1182 114.532 27.1182V27.3794ZM113.836 26.1607C113.749 26.2477 113.662 26.2477 113.227 26.2477C112.791 26.3346 112.704 26.4219 112.704 26.6828C112.704 26.944 112.878 27.0312 113.139 27.0312C113.314 27.0312 113.575 26.944 113.662 26.857C113.749 26.77 113.836 26.6828 113.836 26.5958V26.1607Z" fill="#475356"/>
<path opacity="0.7" d="M115.142 24.0715V25.2902C115.316 25.029 115.577 24.942 115.838 24.942C116.448 24.942 116.796 25.3774 116.796 26.1607C116.796 26.9443 116.361 27.3796 115.838 27.3796C115.49 27.3796 115.316 27.2924 115.142 26.9443V27.2054H114.794V24.0715H115.142ZM115.142 26.1607C115.142 26.6831 115.403 27.0315 115.751 27.0315C116.187 27.0315 116.448 26.6831 116.448 26.1607C116.448 25.6386 116.187 25.2902 115.751 25.2902C115.403 25.2902 115.142 25.6386 115.142 26.1607Z" fill="#475356"/>
</g>
</g>
<defs>
<filter id="filter0_d_110_362" x="5.96985" y="5.96875" width="484.06" height="306.158" filterUnits="userSpaceOnUse" color-interpolation-filters="sRGB">
<feFlood flood-opacity="0" result="BackgroundImageFix"/>
<feColorMatrix in="SourceAlpha" type="matrix" values="0 0 0 0 0 0 0 0 0 0 0 0 0 0 0 0 0 0 127 0" result="hardAlpha"/>
<feOffset/>
<feGaussianBlur stdDeviation="2"/>
<feColorMatrix type="matrix" values="0 0 0 0 0 0 0 0 0 0 0 0 0 0 0 0 0 0 0.25 0"/>
<feBlend mode="normal" in2="BackgroundImageFix" result="effect1_dropShadow_110_362"/>
<feBlend mode="normal" in="SourceGraphic" in2="effect1_dropShadow_110_362" result="shape"/>
</filter>
</defs>
</svg>
