<svg width="18" height="26" viewBox="0 0 18 26" fill="none" xmlns="http://www.w3.org/2000/svg">
<path d="M4.50093 25.9999C6.98443 25.9999 9.00003 24.0586 9.00003 21.6666V17.3333H4.50093C2.01743 17.3333 0.00183105 19.2746 0.00183105 21.6666C0.00183105 24.0586 2.01743 25.9999 4.50093 25.9999Z" fill="#0ACF83"/>
<path d="M0.00183105 13C0.00183105 10.608 2.01743 8.66663 4.50093 8.66663H9.00003V17.3333H4.50093C2.01743 17.3333 0.00183105 15.392 0.00183105 13Z" fill="#A259FF"/>
<path d="M0.0019989 4.33333C0.0019989 1.94133 2.0176 0 4.5011 0H9.0002V8.66667H4.5011C2.0176 8.66667 0.0019989 6.72533 0.0019989 4.33333Z" fill="#F24E1E"/>
<path d="M9.00003 0H13.4991C15.9826 0 17.9982 1.94133 17.9982 4.33333C17.9982 6.72533 15.9826 8.66667 13.4991 8.66667H9.00003V0Z" fill="#FF7262"/>
<path d="M17.9982 13C17.9982 15.392 15.9826 17.3333 13.4991 17.3333C11.0156 17.3333 9.00003 15.392 9.00003 13C9.00003 10.608 11.0156 8.66663 13.4991 8.66663C15.9826 8.66663 17.9982 10.608 17.9982 13Z" fill="#1ABCFE"/>
</svg>
