<svg width="28" height="29" viewBox="0 0 28 29" fill="none" xmlns="http://www.w3.org/2000/svg">
<g clip-path="url(#clip0_107_349)">
<path d="M27.9344 6.61659C27.9448 6.65502 27.9501 6.69464 27.9502 6.73444V12.9213C27.9502 13.0007 27.9293 13.0787 27.8896 13.1475C27.8498 13.2162 27.7927 13.2732 27.7239 13.3127L22.5402 16.3024V22.2282C22.5402 22.3895 22.4546 22.5383 22.315 22.6195L11.4944 28.8594C11.4696 28.8735 11.4426 28.8825 11.4156 28.8921C11.4055 28.8955 11.3959 28.9017 11.3852 28.9045C11.3096 28.9245 11.2301 28.9245 11.1544 28.9045C11.142 28.9011 11.1308 28.8944 11.119 28.8899C11.0942 28.8808 11.0683 28.873 11.0446 28.8594L0.226286 22.6195C0.15756 22.58 0.100455 22.523 0.0607281 22.4543C0.0210009 22.3856 5.44545e-05 22.3076 0 22.2282L0 3.66749C0 3.62689 0.00562899 3.58742 0.0157612 3.54908C0.0191386 3.53611 0.0270192 3.52427 0.0315224 3.5113C0.0399659 3.48762 0.0478464 3.46337 0.0602302 3.44138C0.0686737 3.42672 0.0810575 3.41488 0.0911897 3.40134C0.104136 3.3833 0.115957 3.36469 0.131156 3.3489C0.144102 3.33593 0.160989 3.32635 0.175625 3.31507C0.191949 3.30154 0.206584 3.28687 0.22516 3.27616H0.225723L5.63519 0.15621C5.70368 0.116727 5.78132 0.0959473 5.86035 0.0959473C5.93937 0.0959473 6.01701 0.116727 6.08551 0.15621L11.495 3.27616H11.4961C11.5141 3.28744 11.5293 3.30154 11.5456 3.3145C11.5603 3.32578 11.5766 3.33593 11.5895 3.34834C11.6053 3.36469 11.6166 3.3833 11.6301 3.40134C11.6396 3.41488 11.6526 3.42672 11.6605 3.44138C11.6734 3.46393 11.6807 3.48762 11.6897 3.5113C11.6942 3.52427 11.7021 3.53611 11.7055 3.54964C11.7159 3.58807 11.7212 3.62769 11.7213 3.66749V15.2603L16.229 12.6603V6.73388C16.229 6.6944 16.2346 6.65437 16.2447 6.61659C16.2487 6.60306 16.256 6.59121 16.2605 6.57825C16.2695 6.55456 16.2774 6.53031 16.2897 6.50832C16.2982 6.49366 16.3106 6.48182 16.3201 6.46829C16.3337 6.45024 16.3449 6.43164 16.3607 6.41585C16.3736 6.40288 16.3899 6.39329 16.4046 6.38201C16.4215 6.36848 16.4361 6.35382 16.4541 6.34311H16.4547L21.8647 3.22316C21.9332 3.18362 22.0108 3.16281 22.0899 3.16281C22.1689 3.16281 22.2465 3.18362 22.315 3.22316L27.7245 6.34311C27.7436 6.35438 27.7583 6.36848 27.7751 6.38145C27.7892 6.39273 27.8055 6.40288 27.8185 6.41528C27.8342 6.43164 27.8455 6.45024 27.859 6.46829C27.8691 6.48182 27.8815 6.49366 27.8894 6.50832C27.9024 6.53031 27.9097 6.55456 27.9187 6.57825C27.9237 6.59121 27.9311 6.60306 27.9344 6.61659ZM27.0484 12.6603V7.51541L25.1554 8.60709L22.5402 10.1155V15.2603L27.049 12.6603H27.0484ZM21.639 21.9671V16.8189L19.0665 18.2906L11.7207 22.4904V27.6871L21.639 21.9671ZM0.901765 4.44847V21.9671L10.8189 27.6865V22.491L5.638 19.5537L5.63631 19.5526L5.63406 19.5514C5.61661 19.5413 5.60197 19.5266 5.58565 19.5142C5.57158 19.5029 5.55525 19.4939 5.54287 19.4815L5.54174 19.4798C5.52711 19.4657 5.51698 19.4483 5.50459 19.4325C5.49333 19.4172 5.47983 19.4043 5.47082 19.3885L5.47026 19.3868C5.46012 19.3699 5.45393 19.3496 5.44661 19.3304C5.4393 19.3135 5.42973 19.2977 5.42522 19.2797V19.2791C5.41959 19.2577 5.41847 19.2351 5.41622 19.2131C5.41397 19.1962 5.40946 19.1793 5.40946 19.1624V7.04852L2.7948 5.53958L0.901765 4.44903V4.44847ZM5.86091 1.06857L1.35377 3.66749L5.85978 6.26642L10.3664 3.66693L5.85978 1.06857H5.86091ZM8.20482 17.288L10.8195 15.7802V4.44847L8.92646 5.54014L6.31123 7.04852V18.3803L8.20482 17.288ZM22.0899 4.13551L17.5833 6.73444L22.0899 9.33336L26.5959 6.73388L22.0899 4.13551ZM21.639 10.1155L19.0237 8.60709L17.1307 7.51541V12.6603L19.7454 14.1681L21.639 15.2603V10.1155ZM11.2692 21.7094L17.8794 17.9292L21.1836 16.0402L16.6804 13.4429L11.4955 16.4332L6.76999 19.1584L11.2692 21.7094Z" fill="#FF2D20"/>
</g>
<defs>
<clipPath id="clip0_107_349">
<rect width="28" height="29" fill="white"/>
</clipPath>
</defs>
</svg>
