<svg width="62" height="62" viewBox="0 0 62 62" fill="none" xmlns="http://www.w3.org/2000/svg">
<circle cx="31" cy="31" r="28" stroke="white" stroke-width="6"/>
<path d="M48.8 25.7362V41.2374C48.8 42.6795 48.2271 44.0626 47.2074 45.0823C46.1877 46.102 44.8046 46.6749 43.3625 46.6749H19.4375C17.9954 46.6749 16.6123 46.102 15.5926 45.0823C14.5729 44.0626 14 42.6795 14 41.2374V25.7362L30.8475 35.6498C31.0149 35.7485 31.2057 35.8006 31.4 35.8006C31.5943 35.8006 31.7851 35.7485 31.9524 35.6498L48.8 25.7362ZM43.3625 18.3999C44.7004 18.3997 45.9915 18.8928 46.9887 19.7848C47.9858 20.6769 48.6191 21.9052 48.7674 23.2349L31.4 33.4509L14.0326 23.2349C14.1809 21.9052 14.8142 20.6769 15.8113 19.7848C16.8085 18.8928 18.0996 18.3997 19.4375 18.3999H43.3625Z" fill="white"/>
</svg>
