<svg width="62" height="62" viewBox="0 0 62 62" fill="none" xmlns="http://www.w3.org/2000/svg">
<circle cx="31" cy="31" r="28" stroke="white" stroke-width="6"/>
<path d="M35.33 38.48L37.57 36.24C37.8717 35.942 38.2534 35.7381 38.6688 35.6529C39.0842 35.5676 39.5154 35.6049 39.91 35.76L42.64 36.85C43.0388 37.0119 43.3808 37.2882 43.6228 37.6441C43.8648 38 43.9961 38.4196 44 38.85V43.85C43.9977 44.1428 43.9361 44.432 43.8191 44.7004C43.702 44.9688 43.5318 45.2107 43.3188 45.4115C43.1058 45.6124 42.8543 45.7681 42.5796 45.8692C42.3048 45.9704 42.0124 46.0148 41.72 46C22.59 44.81 18.73 28.61 18 22.41C17.9661 22.1055 17.9971 21.7973 18.0908 21.5057C18.1846 21.2141 18.3391 20.9456 18.5441 20.7179C18.749 20.4903 18.9999 20.3086 19.2802 20.1848C19.5604 20.0611 19.8637 19.9981 20.17 20H25C25.431 20.0013 25.8518 20.1314 26.2082 20.3738C26.5646 20.6162 26.8404 20.9596 27 21.36L28.09 24.09C28.2502 24.483 28.2911 24.9146 28.2075 25.3308C28.124 25.747 27.9196 26.1293 27.62 26.43L25.38 28.67C25.38 28.67 26.67 37.4 35.33 38.48Z" fill="white"/>
</svg>
