<svg width="42" height="22" viewBox="0 0 42 22" fill="none" xmlns="http://www.w3.org/2000/svg">
<path d="M0.590576 11C0.590576 16.7584 9.72838 21.4265 21 21.4265C32.2716 21.4265 41.4095 16.7584 41.4095 11C41.4095 5.24177 32.2716 0.573549 21 0.573549C9.72838 0.573549 0.590576 5.24177 0.590576 11Z" fill="url(#paint0_radial_107_229)"/>
<path d="M21 20.6523C31.8313 20.6523 40.6121 16.3308 40.6121 11C40.6121 5.66919 31.8313 1.34759 21 1.34759C10.1686 1.34759 1.38782 5.66919 1.38782 11C1.38782 16.3308 10.1686 20.6523 21 20.6523Z" fill="#777BB3"/>
<path d="M11.6792 12.1967C12.5699 12.1967 13.2347 12.0372 13.6554 11.7228C14.0716 11.4116 14.3591 10.8724 14.5097 10.1203C14.6502 9.41732 14.5967 8.92646 14.3507 8.66157C14.0992 8.39101 13.5555 8.2538 12.7346 8.2538H11.3113L10.5223 12.1967H11.6792ZM7.02401 17.0537C6.95794 17.0537 6.89519 17.025 6.85319 16.9754C6.81111 16.9259 6.79406 16.8607 6.80669 16.7976L8.89782 6.34879C8.91805 6.24778 9.00922 6.1748 9.11522 6.1748H13.6221C15.0386 6.1748 16.0929 6.5483 16.7555 7.28505C17.4217 8.02568 17.6275 9.06095 17.367 10.362C17.261 10.8921 17.0786 11.3844 16.8251 11.8252C16.5712 12.2664 16.2357 12.6747 15.8277 13.0389C15.3393 13.4828 14.7866 13.8047 14.1863 13.9941C13.5955 14.181 12.8368 14.2757 11.9313 14.2757H10.1063L9.58515 16.8796C9.56492 16.9807 9.47383 17.0537 9.36783 17.0537H7.02401Z" fill="black"/>
<path d="M11.4939 8.46888H12.7346C13.7253 8.46888 14.0695 8.68001 14.1864 8.80583C14.3804 9.01473 14.417 9.45519 14.2923 10.0795C14.1522 10.7785 13.8925 11.2741 13.5203 11.5524C13.1393 11.8373 12.5198 11.9817 11.6792 11.9817H10.7909L11.4939 8.46888ZM13.6221 5.95974H9.11512C8.90311 5.95974 8.72085 6.1057 8.6804 6.3078L6.58926 16.7566C6.56402 16.8827 6.59812 17.0132 6.6822 17.1123C6.76635 17.2114 6.8917 17.2688 7.02398 17.2688H9.36773C9.57981 17.2688 9.76207 17.1228 9.80252 16.9207L10.2888 14.4908H11.9312C12.86 14.4908 13.6419 14.3925 14.255 14.1985C14.8855 13.9996 15.4655 13.6623 15.9789 13.196C16.4035 12.8167 16.7533 12.3908 17.0183 11.9302C17.2834 11.4695 17.4738 10.9557 17.5843 10.4031C17.8586 9.03351 17.6358 7.9368 16.9223 7.14363C16.2157 6.35805 15.1053 5.95974 13.6221 5.95974ZM10.2536 12.4118H11.6792C12.6242 12.4118 13.328 12.239 13.7905 11.8932C14.2531 11.5474 14.565 10.9702 14.7271 10.1614C14.8822 9.38486 14.8116 8.83687 14.5152 8.51763C14.2184 8.1984 13.625 8.03875 12.7346 8.03875H11.1287L10.2536 12.4118ZM13.6221 6.38988C14.978 6.38988 15.9671 6.73543 16.5888 7.42659C17.2104 8.11775 17.3976 9.08248 17.1496 10.3211C17.0475 10.8313 16.8748 11.2978 16.6317 11.7204C16.3883 12.1433 16.0705 12.53 15.6778 12.8806C15.2098 13.3059 14.6899 13.609 14.1178 13.7896C13.5457 13.9706 12.8171 14.0607 11.9312 14.0607H9.92366L9.36773 16.8387H7.02398L9.11512 6.38988H13.6221Z" fill="white"/>
<path d="M22.7409 14.2759C22.6747 14.2759 22.612 14.2472 22.57 14.1976C22.5279 14.1481 22.5108 14.0829 22.5235 14.0198L23.4485 9.3966C23.5365 8.95693 23.5148 8.64135 23.3874 8.50801C23.3095 8.4265 23.0753 8.28978 22.383 8.28978H20.7071L19.5441 14.1018C19.5239 14.2029 19.4327 14.2759 19.3267 14.2759H17.0014C16.9353 14.2759 16.8726 14.2472 16.8305 14.1976C16.7885 14.1481 16.7714 14.0828 16.784 14.0198L18.8752 3.57095C18.8954 3.46994 18.9866 3.39696 19.0926 3.39696H21.4179C21.484 3.39696 21.5467 3.42564 21.5888 3.47517C21.6308 3.52478 21.6479 3.58995 21.6353 3.65304L21.1306 6.17494H22.9334C24.3068 6.17494 25.2381 6.41008 25.7806 6.89384C26.3335 7.38735 26.506 8.17644 26.2934 9.23946L25.3204 14.1018C25.3002 14.2029 25.2091 14.2759 25.1031 14.2759H22.7409Z" fill="black"/>
<path d="M21.4179 3.18167H19.0926C18.8805 3.18167 18.6983 3.32763 18.6578 3.52973L16.5667 13.9786C16.5414 14.1047 16.5755 14.2351 16.6597 14.3342C16.7438 14.4334 16.8692 14.4907 17.0015 14.4907H19.3268C19.5388 14.4907 19.7211 14.3448 19.7616 14.1427L20.8897 8.50463H22.383C23.0742 8.50463 23.2192 8.64801 23.2251 8.65418C23.267 8.69798 23.3221 8.90086 23.2311 9.35537L22.3061 13.9786C22.2808 14.1047 22.3149 14.2351 22.3991 14.3342C22.4833 14.4334 22.6086 14.4907 22.7409 14.4907H25.1031C25.3151 14.4907 25.4974 14.3448 25.5379 14.1427L26.5107 9.28032C26.7391 8.13894 26.5437 7.28275 25.9304 6.73533C25.3452 6.21336 24.3649 5.95965 22.9335 5.95965H21.3992L21.8527 3.6939C21.8779 3.56779 21.8438 3.43732 21.7597 3.33824C21.6755 3.2391 21.5502 3.18167 21.4179 3.18167ZM21.4179 3.61181L20.862 6.38979H22.9335C24.2369 6.38979 25.1359 6.61073 25.6307 7.05206C26.1255 7.49366 26.2738 8.2092 26.076 9.1983L25.1031 14.0606H22.7409L23.6659 9.43746C23.7712 8.91154 23.7325 8.55281 23.5497 8.36154C23.3669 8.17027 22.9779 8.07449 22.383 8.07449H20.5245L19.3268 14.0606H17.0015L19.0926 3.61181H21.4179Z" fill="white"/>
<path d="M29.9726 12.1967C30.8632 12.1967 31.5281 12.0372 31.9488 11.7228C32.365 11.4117 32.6525 10.8725 32.8032 10.1203C32.9437 9.41732 32.8902 8.92646 32.6441 8.66157C32.3926 8.39101 31.8489 8.2538 31.028 8.2538H29.6047L28.8157 12.1967H29.9726ZM25.3175 17.0537C25.2514 17.0537 25.1887 17.025 25.1467 16.9754C25.1046 16.9259 25.0874 16.8607 25.1001 16.7976L27.1912 6.34879C27.2115 6.24778 27.3026 6.1748 27.4087 6.1748H31.9155C33.332 6.1748 34.3862 6.5483 35.049 7.28505C35.7152 8.02561 35.9209 9.06088 35.6604 10.362C35.5543 10.8921 35.372 11.3844 35.1185 11.8252C34.8646 12.2664 34.5291 12.6747 34.1211 13.0389C33.6327 13.4828 33.08 13.8047 32.4797 13.9941C31.8889 14.181 31.1302 14.2757 30.2246 14.2757H28.3996L27.8787 16.8796C27.8584 16.9807 27.7673 17.0537 27.6612 17.0537H25.3175Z" fill="black"/>
<path d="M29.7873 8.46888H31.028C32.0188 8.46888 32.3629 8.68001 32.4798 8.80583C32.6739 9.01473 32.7105 9.45519 32.5858 10.0795C32.4457 10.7785 32.1859 11.2741 31.8138 11.5524C31.4327 11.8373 30.8132 11.9817 29.9727 11.9817H29.0844L29.7873 8.46888ZM31.9156 5.95974H27.4086C27.1966 5.95974 27.0144 6.1057 26.9739 6.3078L24.8828 16.7566C24.8575 16.8827 24.8916 17.0132 24.9757 17.1123C25.0599 17.2114 25.1852 17.2688 25.3175 17.2688H27.6612C27.8733 17.2688 28.0556 17.1228 28.096 16.9207L28.5823 14.4908H30.2247C31.1535 14.4908 31.9353 14.3925 32.5484 14.1985C33.1789 13.9996 33.7591 13.6622 34.2725 13.1959C34.6971 12.8166 35.0467 12.3908 35.3117 11.9302C35.5768 11.4695 35.7673 10.9557 35.8778 10.4031C36.152 9.03344 35.9292 7.93673 35.2157 7.14356C34.5091 6.35805 33.3988 5.95974 31.9156 5.95974ZM28.5471 12.4118H29.9727C30.9176 12.4118 31.6215 12.239 32.0839 11.8932C32.5466 11.5474 32.8584 10.9702 33.0206 10.1614C33.1757 9.38486 33.1051 8.83687 32.8086 8.51763C32.5119 8.1984 31.9184 8.03875 31.028 8.03875H29.4222L28.5471 12.4118ZM31.9156 6.38988C33.2714 6.38988 34.2605 6.73543 34.8822 7.42659C35.5039 8.11775 35.691 9.08248 35.443 10.3211C35.3409 10.8313 35.1682 11.2978 34.9252 11.7204C34.6818 12.1433 34.364 12.53 33.9713 12.8806C33.5033 13.3059 32.9834 13.609 32.4113 13.7896C31.8392 13.9706 31.1105 14.0607 30.2247 14.0607H28.2171L27.6612 16.8387H25.3175L27.4086 6.38988H31.9156Z" fill="white"/>
<defs>
<radialGradient id="paint0_radial_107_229" cx="0" cy="0" r="1" gradientUnits="userSpaceOnUse" gradientTransform="translate(12.8445 4.23918) scale(26.8005 26.0275)">
<stop stop-color="#AEB2D5"/>
<stop offset="0.3" stop-color="#AEB2D5"/>
<stop offset="0.75" stop-color="#484C89"/>
<stop offset="1" stop-color="#484C89"/>
</radialGradient>
</defs>
</svg>
