<svg width="36" height="24" viewBox="0 0 36 24" fill="none" xmlns="http://www.w3.org/2000/svg">
<path d="M31.1191 13.7875C29.8955 13.7938 28.8359 14.0625 27.9472 14.4625C27.6191 13.8688 27.291 13.35 27.2364 12.9625C27.1748 12.5125 27.0996 12.2375 27.1748 11.7C27.25 11.1625 27.5918 10.4 27.5918 10.3375C27.5849 10.2812 27.5165 10.0062 26.8125 9.99998C26.1084 9.99373 25.5 10.125 25.4316 10.2937C25.3632 10.4625 25.2265 10.85 25.1377 11.25C25.0146 11.8375 23.7295 13.9187 22.998 15.0125C22.7588 14.5875 22.5537 14.2125 22.5126 13.9124C22.4511 13.4625 22.3759 13.1874 22.4511 12.65C22.5263 12.1124 22.8681 11.35 22.8681 11.2875C22.8613 11.2312 22.7929 10.9562 22.0889 10.95C21.3847 10.9437 20.7764 11.075 20.708 11.2437C20.6397 11.4125 20.5645 11.8125 20.4141 12.2C20.2705 12.5875 18.5615 16.0625 18.1172 16.9687C17.8916 17.4312 17.6934 17.8 17.5498 18.05C17.4062 18.3 17.5429 18.0687 17.5293 18.0937C17.4062 18.3062 17.3379 18.425 17.3379 18.425V18.4313C17.2422 18.5875 17.1396 18.7375 17.0917 18.7375C17.0575 18.7375 16.9892 18.3187 17.1054 17.7438C17.3583 16.5375 17.9735 14.6563 17.9668 14.5875C17.9668 14.5563 18.0829 14.225 17.5702 14.0563C17.0712 13.8875 16.8935 14.1688 16.8524 14.1688C16.8114 14.1688 16.7772 14.2688 16.7772 14.2688C16.7772 14.2688 17.331 12.1501 15.7177 12.1501C14.706 12.1501 13.3114 13.1564 12.621 14.0751C12.1835 14.2939 11.2538 14.7563 10.2694 15.2501C9.89346 15.4376 9.50381 15.6376 9.13467 15.8189L9.05954 15.7437C7.10446 13.8375 3.48825 12.4875 3.63864 9.92498C3.69333 8.99373 4.0488 6.53748 10.584 3.56248C15.9366 1.12498 20.2227 1.79373 20.9677 3.28123C22.0273 5.40623 18.6777 9.35623 13.1133 9.92498C10.9942 10.1437 9.87985 9.39373 9.59965 9.11248C9.3057 8.81873 9.26469 8.80623 9.15531 8.86248C8.97758 8.94998 9.08695 9.21248 9.15531 9.36873C9.31937 9.76248 10.003 10.4625 11.1651 10.8125C12.1836 11.1187 14.6719 11.2875 17.6797 10.225C21.0498 9.03123 23.6817 5.71873 22.9092 2.94998C22.1231 0.131227 17.0098 -0.793774 12.1768 0.774977C9.2988 1.71248 6.18161 3.17498 3.93942 5.09373C1.27341 7.36873 0.849582 9.35623 1.02732 10.1812C1.64945 13.125 6.08591 15.0437 7.86325 16.4625C7.77438 16.5062 7.69235 16.5499 7.61716 16.5875C6.72849 16.9874 3.3447 18.6062 2.49704 20.3187C1.54001 22.2562 2.64743 23.65 3.38571 23.8375C5.66892 24.4187 8.00681 23.375 9.27145 21.6562C10.5292 19.9375 10.3789 17.7062 9.79782 16.6875L9.77724 16.65L10.4745 16.275C10.9257 16.0312 11.3701 15.8062 11.7597 15.6124C11.541 16.1562 11.3837 16.7999 11.3017 17.7374C11.206 18.8375 11.6982 20.2624 12.3476 20.8249C12.6347 21.0686 12.9765 21.0749 13.1884 21.0749C13.9404 21.0749 14.2822 20.5061 14.6582 19.8249C15.123 18.9937 15.5332 18.0312 15.5332 18.0312C15.5332 18.0312 15.0205 20.6374 16.4218 20.6374C16.9345 20.6374 17.4472 20.0312 17.6797 19.7187V19.7249C17.6797 19.7249 17.6933 19.7062 17.7207 19.6624C17.7494 19.6236 17.7767 19.5841 17.8027 19.5437V19.5312C18.0078 19.2062 18.4658 18.4625 19.1494 17.2312C20.0311 15.6437 20.8789 13.6562 20.8789 13.6562C20.8789 13.6562 20.9609 14.1437 21.2138 14.9437C21.3642 15.4188 21.6923 15.9375 21.9452 16.4437C21.7401 16.7062 21.6171 16.8563 21.6171 16.8563L21.6239 16.8625C21.4599 17.0625 21.2753 17.2751 21.0839 17.4875C20.3867 18.25 19.5527 19.1189 19.4433 19.3689C19.3134 19.6625 19.3408 19.8813 19.5937 20.0564C19.7783 20.1814 20.1064 20.2063 20.455 20.1814C21.084 20.1438 21.5215 20.0001 21.7402 19.9125C22.082 19.8 22.4716 19.6313 22.8476 19.3813C23.5312 18.9189 23.9482 18.2626 23.9072 17.3876C23.8867 16.9064 23.7158 16.4314 23.5039 15.9814C23.5654 15.9001 23.627 15.8188 23.6884 15.7314C24.7685 14.2875 25.6025 12.7001 25.6025 12.7001C25.6025 12.7001 25.6845 13.1876 25.9375 13.9876C26.0673 14.3939 26.3271 14.8377 26.5595 15.2752C25.5478 16.0314 24.9121 16.9064 24.6933 17.4814C24.29 18.5439 24.6045 19.0252 25.1992 19.1377C25.4657 19.1877 25.8486 19.0752 26.1356 18.9627C26.4911 18.8564 26.9218 18.6751 27.3183 18.4064C28.0019 17.9439 28.6582 17.3002 28.624 16.4314C28.6035 16.0314 28.4873 15.6377 28.33 15.2627C29.1914 14.9377 30.3056 14.7502 31.7207 14.9064C34.7627 15.2314 35.3642 16.9689 35.2481 17.6939C35.1319 18.419 34.4961 18.8189 34.2841 18.9439C34.0722 19.0627 34.0039 19.1065 34.0244 19.1939C34.0517 19.3252 34.1474 19.3189 34.332 19.294C34.5849 19.2564 35.9316 18.7002 35.9863 17.3628C36.0683 15.6438 34.2841 13.7688 31.1191 13.7875ZM7.65817 21.0187C6.65329 22.025 5.23825 22.4062 4.63669 22.0812C3.98728 21.7375 4.24014 20.2562 5.47751 19.1875C6.22946 18.5375 7.207 17.9375 7.84958 17.5687C7.99313 17.4875 8.21188 17.3688 8.47165 17.225C8.51267 17.2 8.54001 17.1875 8.54001 17.1875C8.58786 17.1625 8.64255 17.1312 8.69724 17.1C9.15524 18.625 8.71774 19.9625 7.65817 21.0187ZM15.0068 16.45C14.6582 17.2312 13.9199 19.2375 13.4756 19.125C13.0927 19.0312 12.8603 17.5125 13.4003 16.0125C13.6737 15.2562 14.2548 14.3562 14.5966 14.0062C15.1504 13.4437 15.7519 13.2562 15.9023 13.4874C16.08 13.7875 15.2256 15.9625 15.0068 16.45ZM21.0703 19.1C20.9199 19.1688 20.7832 19.2187 20.7216 19.1813C20.6738 19.1563 20.7831 19.0625 20.7831 19.0625C20.7831 19.0625 21.5419 18.3188 21.8427 17.975C22.0136 17.7751 22.2186 17.5439 22.4374 17.2813V17.3563C22.4375 18.2562 21.4941 18.8562 21.0703 19.1ZM25.746 18.125C25.6366 18.05 25.6504 17.8187 26.0194 17.0937C26.163 16.8062 26.4911 16.325 27.0585 15.8687C27.1268 16.0562 27.1679 16.2374 27.161 16.4062C27.1543 17.5312 26.2793 17.95 25.746 18.125Z" fill="#CF649A"/>
</svg>
